<mxfile host="app.diagrams.net" modified="2022-09-09T05:20:43.789Z" agent="5.0 (X11; Linux x86_64) AppleWebKit/537.36 (KHTML, like Gecko) Chrome/100.0.4896.75 Safari/537.36" etag="wNGK6hjfIiyIMluRl-mb" version="20.2.8" type="github">
  <diagram id="FhnmaERMxof0ddQNYHhR" name="Halaman-1">
    <mxGraphModel dx="1157" dy="1832" grid="1" gridSize="10" guides="1" tooltips="1" connect="1" arrows="1" fold="1" page="1" pageScale="1" pageWidth="827" pageHeight="1169" math="0" shadow="0">
      <root>
        <mxCell id="0" />
        <mxCell id="1" parent="0" />
        <mxCell id="m4msL5Y1Op4crRbXGLQl-36" style="edgeStyle=none;rounded=1;orthogonalLoop=1;jettySize=auto;html=1;exitX=0.5;exitY=1;exitDx=0;exitDy=0;entryX=0.5;entryY=0;entryDx=0;entryDy=0;endArrow=none;endFill=0;" parent="1" source="m4msL5Y1Op4crRbXGLQl-1" target="m4msL5Y1Op4crRbXGLQl-35" edge="1">
          <mxGeometry relative="1" as="geometry" />
        </mxCell>
        <mxCell id="m4msL5Y1Op4crRbXGLQl-1" value="pengguna" style="rounded=0;whiteSpace=wrap;html=1;" parent="1" vertex="1">
          <mxGeometry x="340" y="60" width="100" height="30" as="geometry" />
        </mxCell>
        <mxCell id="m4msL5Y1Op4crRbXGLQl-6" style="rounded=1;orthogonalLoop=1;jettySize=auto;html=1;exitX=1;exitY=1;exitDx=0;exitDy=0;entryX=0.25;entryY=0;entryDx=0;entryDy=0;endArrow=none;endFill=0;" parent="1" source="m4msL5Y1Op4crRbXGLQl-2" target="m4msL5Y1Op4crRbXGLQl-1" edge="1">
          <mxGeometry relative="1" as="geometry" />
        </mxCell>
        <mxCell id="m4msL5Y1Op4crRbXGLQl-2" value="id_pengguna" style="ellipse;whiteSpace=wrap;html=1;" parent="1" vertex="1">
          <mxGeometry x="240" y="10" width="80" height="30" as="geometry" />
        </mxCell>
        <mxCell id="m4msL5Y1Op4crRbXGLQl-7" style="orthogonalLoop=1;jettySize=auto;html=1;exitX=0.5;exitY=1;exitDx=0;exitDy=0;entryX=0.5;entryY=0;entryDx=0;entryDy=0;rounded=1;endArrow=none;endFill=0;" parent="1" source="m4msL5Y1Op4crRbXGLQl-3" target="m4msL5Y1Op4crRbXGLQl-1" edge="1">
          <mxGeometry relative="1" as="geometry" />
        </mxCell>
        <mxCell id="m4msL5Y1Op4crRbXGLQl-3" value="nm_pengguna" style="ellipse;whiteSpace=wrap;html=1;" parent="1" vertex="1">
          <mxGeometry x="350" y="-10" width="80" height="30" as="geometry" />
        </mxCell>
        <mxCell id="m4msL5Y1Op4crRbXGLQl-8" style="rounded=1;orthogonalLoop=1;jettySize=auto;html=1;exitX=0;exitY=1;exitDx=0;exitDy=0;entryX=0.75;entryY=0;entryDx=0;entryDy=0;endArrow=none;endFill=0;" parent="1" target="m4msL5Y1Op4crRbXGLQl-1" edge="1">
          <mxGeometry relative="1" as="geometry">
            <mxPoint x="461.7157287525381" y="35.606601717798185" as="sourcePoint" />
          </mxGeometry>
        </mxCell>
        <mxCell id="m4msL5Y1Op4crRbXGLQl-4" value="kt_sandi" style="ellipse;whiteSpace=wrap;html=1;" parent="1" vertex="1">
          <mxGeometry x="440" y="10" width="80" height="30" as="geometry" />
        </mxCell>
        <mxCell id="m4msL5Y1Op4crRbXGLQl-40" style="edgeStyle=orthogonalEdgeStyle;rounded=0;orthogonalLoop=1;jettySize=auto;html=1;exitX=1;exitY=1;exitDx=0;exitDy=0;entryX=0;entryY=0.5;entryDx=0;entryDy=0;endArrow=none;endFill=0;" parent="1" source="m4msL5Y1Op4crRbXGLQl-9" target="m4msL5Y1Op4crRbXGLQl-39" edge="1">
          <mxGeometry relative="1" as="geometry" />
        </mxCell>
        <mxCell id="m4msL5Y1Op4crRbXGLQl-9" value="m_kecamatan" style="rounded=0;whiteSpace=wrap;html=1;" parent="1" vertex="1">
          <mxGeometry x="215" y="190" width="100" height="30" as="geometry" />
        </mxCell>
        <mxCell id="m4msL5Y1Op4crRbXGLQl-41" style="edgeStyle=orthogonalEdgeStyle;rounded=0;orthogonalLoop=1;jettySize=auto;html=1;exitX=0;exitY=1;exitDx=0;exitDy=0;entryX=1;entryY=0.5;entryDx=0;entryDy=0;endArrow=none;endFill=0;" parent="1" source="m4msL5Y1Op4crRbXGLQl-10" target="m4msL5Y1Op4crRbXGLQl-39" edge="1">
          <mxGeometry relative="1" as="geometry" />
        </mxCell>
        <mxCell id="m4msL5Y1Op4crRbXGLQl-10" value="m_kategori_hotspot" style="rounded=0;whiteSpace=wrap;html=1;" parent="1" vertex="1">
          <mxGeometry x="470" y="190" width="115" height="30" as="geometry" />
        </mxCell>
        <mxCell id="m4msL5Y1Op4crRbXGLQl-18" style="edgeStyle=none;rounded=1;orthogonalLoop=1;jettySize=auto;html=1;exitX=1;exitY=0.5;exitDx=0;exitDy=0;entryX=0;entryY=0.25;entryDx=0;entryDy=0;endArrow=none;endFill=0;" parent="1" source="m4msL5Y1Op4crRbXGLQl-11" target="m4msL5Y1Op4crRbXGLQl-9" edge="1">
          <mxGeometry relative="1" as="geometry" />
        </mxCell>
        <mxCell id="m4msL5Y1Op4crRbXGLQl-11" value="kd_kecamatan" style="ellipse;whiteSpace=wrap;html=1;" parent="1" vertex="1">
          <mxGeometry x="85" y="140" width="100" height="40" as="geometry" />
        </mxCell>
        <mxCell id="m4msL5Y1Op4crRbXGLQl-19" style="edgeStyle=none;rounded=1;orthogonalLoop=1;jettySize=auto;html=1;exitX=1;exitY=0.5;exitDx=0;exitDy=0;endArrow=none;endFill=0;" parent="1" source="m4msL5Y1Op4crRbXGLQl-12" target="m4msL5Y1Op4crRbXGLQl-9" edge="1">
          <mxGeometry relative="1" as="geometry" />
        </mxCell>
        <mxCell id="m4msL5Y1Op4crRbXGLQl-12" value="nm_kecamatan" style="ellipse;whiteSpace=wrap;html=1;" parent="1" vertex="1">
          <mxGeometry x="90" y="190" width="90" height="40" as="geometry" />
        </mxCell>
        <mxCell id="m4msL5Y1Op4crRbXGLQl-20" style="edgeStyle=none;rounded=1;orthogonalLoop=1;jettySize=auto;html=1;exitX=1;exitY=0.5;exitDx=0;exitDy=0;entryX=0;entryY=1;entryDx=0;entryDy=0;endArrow=none;endFill=0;" parent="1" source="m4msL5Y1Op4crRbXGLQl-13" target="m4msL5Y1Op4crRbXGLQl-9" edge="1">
          <mxGeometry relative="1" as="geometry" />
        </mxCell>
        <mxCell id="m4msL5Y1Op4crRbXGLQl-13" value="geojson_kecamatan" style="ellipse;whiteSpace=wrap;html=1;" parent="1" vertex="1">
          <mxGeometry x="70" y="240" width="120" height="40" as="geometry" />
        </mxCell>
        <mxCell id="m4msL5Y1Op4crRbXGLQl-21" style="edgeStyle=none;rounded=1;orthogonalLoop=1;jettySize=auto;html=1;exitX=1;exitY=0.5;exitDx=0;exitDy=0;entryX=0.41;entryY=1.1;entryDx=0;entryDy=0;entryPerimeter=0;endArrow=none;endFill=0;" parent="1" source="m4msL5Y1Op4crRbXGLQl-14" target="m4msL5Y1Op4crRbXGLQl-9" edge="1">
          <mxGeometry relative="1" as="geometry" />
        </mxCell>
        <mxCell id="m4msL5Y1Op4crRbXGLQl-14" value="warna_kecamatan" style="ellipse;whiteSpace=wrap;html=1;" parent="1" vertex="1">
          <mxGeometry x="85" y="290" width="110" height="40" as="geometry" />
        </mxCell>
        <mxCell id="m4msL5Y1Op4crRbXGLQl-17" style="edgeStyle=none;rounded=1;orthogonalLoop=1;jettySize=auto;html=1;exitX=1;exitY=0.5;exitDx=0;exitDy=0;endArrow=none;endFill=0;" parent="1" source="m4msL5Y1Op4crRbXGLQl-15" target="m4msL5Y1Op4crRbXGLQl-9" edge="1">
          <mxGeometry relative="1" as="geometry" />
        </mxCell>
        <mxCell id="m4msL5Y1Op4crRbXGLQl-15" value="id_kecamatan" style="ellipse;whiteSpace=wrap;html=1;" parent="1" vertex="1">
          <mxGeometry x="85" y="90" width="90" height="40" as="geometry" />
        </mxCell>
        <mxCell id="m4msL5Y1Op4crRbXGLQl-29" style="edgeStyle=none;rounded=1;orthogonalLoop=1;jettySize=auto;html=1;exitX=0;exitY=0.5;exitDx=0;exitDy=0;entryX=0.75;entryY=0;entryDx=0;entryDy=0;endArrow=none;endFill=0;" parent="1" source="m4msL5Y1Op4crRbXGLQl-25" target="m4msL5Y1Op4crRbXGLQl-10" edge="1">
          <mxGeometry relative="1" as="geometry" />
        </mxCell>
        <mxCell id="m4msL5Y1Op4crRbXGLQl-25" value="id_kategori_hotspot" style="ellipse;whiteSpace=wrap;html=1;" parent="1" vertex="1">
          <mxGeometry x="610" y="80" width="120" height="40" as="geometry" />
        </mxCell>
        <mxCell id="m4msL5Y1Op4crRbXGLQl-30" style="edgeStyle=none;rounded=1;orthogonalLoop=1;jettySize=auto;html=1;exitX=0;exitY=0.5;exitDx=0;exitDy=0;entryX=1;entryY=0;entryDx=0;entryDy=0;endArrow=none;endFill=0;" parent="1" source="m4msL5Y1Op4crRbXGLQl-26" target="m4msL5Y1Op4crRbXGLQl-10" edge="1">
          <mxGeometry relative="1" as="geometry" />
        </mxCell>
        <mxCell id="m4msL5Y1Op4crRbXGLQl-26" value="kd_kategori_hotspot" style="ellipse;whiteSpace=wrap;html=1;" parent="1" vertex="1">
          <mxGeometry x="660" y="120" width="120" height="50" as="geometry" />
        </mxCell>
        <mxCell id="m4msL5Y1Op4crRbXGLQl-31" style="edgeStyle=none;rounded=1;orthogonalLoop=1;jettySize=auto;html=1;exitX=0;exitY=0.5;exitDx=0;exitDy=0;entryX=1;entryY=1;entryDx=0;entryDy=0;endArrow=none;endFill=0;" parent="1" source="m4msL5Y1Op4crRbXGLQl-27" target="m4msL5Y1Op4crRbXGLQl-10" edge="1">
          <mxGeometry relative="1" as="geometry" />
        </mxCell>
        <mxCell id="m4msL5Y1Op4crRbXGLQl-27" value="nm_kategori_hotspot" style="ellipse;whiteSpace=wrap;html=1;" parent="1" vertex="1">
          <mxGeometry x="660" y="205" width="120" height="50" as="geometry" />
        </mxCell>
        <mxCell id="m4msL5Y1Op4crRbXGLQl-32" style="edgeStyle=none;rounded=1;orthogonalLoop=1;jettySize=auto;html=1;exitX=0;exitY=0.5;exitDx=0;exitDy=0;entryX=0.809;entryY=1.033;entryDx=0;entryDy=0;entryPerimeter=0;endArrow=none;endFill=0;" parent="1" source="m4msL5Y1Op4crRbXGLQl-28" target="m4msL5Y1Op4crRbXGLQl-10" edge="1">
          <mxGeometry relative="1" as="geometry" />
        </mxCell>
        <mxCell id="m4msL5Y1Op4crRbXGLQl-28" value="Market" style="ellipse;whiteSpace=wrap;html=1;" parent="1" vertex="1">
          <mxGeometry x="615" y="280" width="110" height="35" as="geometry" />
        </mxCell>
        <mxCell id="m4msL5Y1Op4crRbXGLQl-33" value="t_hotspot" style="rounded=0;whiteSpace=wrap;html=1;" parent="1" vertex="1">
          <mxGeometry x="340" y="410" width="115" height="30" as="geometry" />
        </mxCell>
        <mxCell id="m4msL5Y1Op4crRbXGLQl-37" style="edgeStyle=orthogonalEdgeStyle;rounded=0;orthogonalLoop=1;jettySize=auto;html=1;exitX=0;exitY=0.5;exitDx=0;exitDy=0;entryX=1;entryY=0;entryDx=0;entryDy=0;endArrow=none;endFill=0;" parent="1" source="m4msL5Y1Op4crRbXGLQl-35" target="m4msL5Y1Op4crRbXGLQl-9" edge="1">
          <mxGeometry relative="1" as="geometry" />
        </mxCell>
        <mxCell id="m4msL5Y1Op4crRbXGLQl-38" style="edgeStyle=orthogonalEdgeStyle;rounded=0;orthogonalLoop=1;jettySize=auto;html=1;exitX=1;exitY=0.5;exitDx=0;exitDy=0;entryX=0;entryY=0.25;entryDx=0;entryDy=0;endArrow=none;endFill=0;" parent="1" source="m4msL5Y1Op4crRbXGLQl-35" target="m4msL5Y1Op4crRbXGLQl-10" edge="1">
          <mxGeometry relative="1" as="geometry">
            <Array as="points">
              <mxPoint x="470" y="145" />
            </Array>
          </mxGeometry>
        </mxCell>
        <mxCell id="m4msL5Y1Op4crRbXGLQl-35" value="login" style="rhombus;whiteSpace=wrap;html=1;" parent="1" vertex="1">
          <mxGeometry x="363" y="120" width="54" height="50" as="geometry" />
        </mxCell>
        <mxCell id="m4msL5Y1Op4crRbXGLQl-43" style="edgeStyle=orthogonalEdgeStyle;rounded=0;orthogonalLoop=1;jettySize=auto;html=1;exitX=0.5;exitY=1;exitDx=0;exitDy=0;entryX=0.5;entryY=0;entryDx=0;entryDy=0;endArrow=none;endFill=0;" parent="1" source="m4msL5Y1Op4crRbXGLQl-39" target="m4msL5Y1Op4crRbXGLQl-33" edge="1">
          <mxGeometry relative="1" as="geometry" />
        </mxCell>
        <mxCell id="m4msL5Y1Op4crRbXGLQl-39" value="simpan data" style="rhombus;whiteSpace=wrap;html=1;" parent="1" vertex="1">
          <mxGeometry x="357.5" y="270" width="80" height="80" as="geometry" />
        </mxCell>
        <mxCell id="m4msL5Y1Op4crRbXGLQl-55" style="edgeStyle=none;rounded=0;orthogonalLoop=1;jettySize=auto;html=1;exitX=0;exitY=0.5;exitDx=0;exitDy=0;entryX=1;entryY=0;entryDx=0;entryDy=0;endArrow=none;endFill=0;" parent="1" source="m4msL5Y1Op4crRbXGLQl-44" target="m4msL5Y1Op4crRbXGLQl-33" edge="1">
          <mxGeometry relative="1" as="geometry" />
        </mxCell>
        <mxCell id="m4msL5Y1Op4crRbXGLQl-44" value="marker" style="ellipse;whiteSpace=wrap;html=1;" parent="1" vertex="1">
          <mxGeometry x="640" y="460" width="100" height="40" as="geometry" />
        </mxCell>
        <mxCell id="m4msL5Y1Op4crRbXGLQl-52" style="rounded=0;orthogonalLoop=1;jettySize=auto;html=1;exitX=1;exitY=0.5;exitDx=0;exitDy=0;entryX=0;entryY=0;entryDx=0;entryDy=0;endArrow=none;endFill=0;" parent="1" source="m4msL5Y1Op4crRbXGLQl-45" target="m4msL5Y1Op4crRbXGLQl-33" edge="1">
          <mxGeometry relative="1" as="geometry" />
        </mxCell>
        <mxCell id="m4msL5Y1Op4crRbXGLQl-45" value="id_hotspot" style="ellipse;whiteSpace=wrap;html=1;" parent="1" vertex="1">
          <mxGeometry x="20" y="460" width="100" height="40" as="geometry" />
        </mxCell>
        <mxCell id="m4msL5Y1Op4crRbXGLQl-53" style="edgeStyle=none;rounded=0;orthogonalLoop=1;jettySize=auto;html=1;exitX=1;exitY=0.5;exitDx=0;exitDy=0;entryX=0;entryY=0.5;entryDx=0;entryDy=0;endArrow=none;endFill=0;" parent="1" source="m4msL5Y1Op4crRbXGLQl-46" target="m4msL5Y1Op4crRbXGLQl-33" edge="1">
          <mxGeometry relative="1" as="geometry" />
        </mxCell>
        <mxCell id="m4msL5Y1Op4crRbXGLQl-46" value="id_kecamatan" style="ellipse;whiteSpace=wrap;html=1;" parent="1" vertex="1">
          <mxGeometry x="70" y="510" width="100" height="40" as="geometry" />
        </mxCell>
        <mxCell id="m4msL5Y1Op4crRbXGLQl-54" style="edgeStyle=none;rounded=0;orthogonalLoop=1;jettySize=auto;html=1;exitX=1;exitY=0.5;exitDx=0;exitDy=0;entryX=0;entryY=0.75;entryDx=0;entryDy=0;endArrow=none;endFill=0;" parent="1" source="m4msL5Y1Op4crRbXGLQl-47" target="m4msL5Y1Op4crRbXGLQl-33" edge="1">
          <mxGeometry relative="1" as="geometry" />
        </mxCell>
        <mxCell id="m4msL5Y1Op4crRbXGLQl-47" value="lokasi" style="ellipse;whiteSpace=wrap;html=1;" parent="1" vertex="1">
          <mxGeometry x="160" y="565" width="100" height="40" as="geometry" />
        </mxCell>
        <mxCell id="m4msL5Y1Op4crRbXGLQl-58" style="edgeStyle=none;rounded=0;orthogonalLoop=1;jettySize=auto;html=1;exitX=1;exitY=0.5;exitDx=0;exitDy=0;entryX=0.25;entryY=1;entryDx=0;entryDy=0;endArrow=none;endFill=0;" parent="1" source="m4msL5Y1Op4crRbXGLQl-48" target="m4msL5Y1Op4crRbXGLQl-33" edge="1">
          <mxGeometry relative="1" as="geometry" />
        </mxCell>
        <mxCell id="m4msL5Y1Op4crRbXGLQl-48" value="keterangan" style="ellipse;whiteSpace=wrap;html=1;" parent="1" vertex="1">
          <mxGeometry x="250" y="605" width="100" height="40" as="geometry" />
        </mxCell>
        <mxCell id="m4msL5Y1Op4crRbXGLQl-59" style="edgeStyle=none;rounded=0;orthogonalLoop=1;jettySize=auto;html=1;exitX=0;exitY=0.5;exitDx=0;exitDy=0;entryX=0.75;entryY=1;entryDx=0;entryDy=0;endArrow=none;endFill=0;" parent="1" source="m4msL5Y1Op4crRbXGLQl-49" target="m4msL5Y1Op4crRbXGLQl-33" edge="1">
          <mxGeometry relative="1" as="geometry" />
        </mxCell>
        <mxCell id="m4msL5Y1Op4crRbXGLQl-49" value="lat" style="ellipse;whiteSpace=wrap;html=1;" parent="1" vertex="1">
          <mxGeometry x="460" y="605" width="100" height="40" as="geometry" />
        </mxCell>
        <mxCell id="m4msL5Y1Op4crRbXGLQl-57" style="edgeStyle=none;rounded=0;orthogonalLoop=1;jettySize=auto;html=1;exitX=0;exitY=0.5;exitDx=0;exitDy=0;entryX=1;entryY=1;entryDx=0;entryDy=0;endArrow=none;endFill=0;" parent="1" source="m4msL5Y1Op4crRbXGLQl-50" target="m4msL5Y1Op4crRbXGLQl-33" edge="1">
          <mxGeometry relative="1" as="geometry" />
        </mxCell>
        <mxCell id="m4msL5Y1Op4crRbXGLQl-50" value="lng" style="ellipse;whiteSpace=wrap;html=1;" parent="1" vertex="1">
          <mxGeometry x="515" y="560" width="100" height="40" as="geometry" />
        </mxCell>
        <mxCell id="m4msL5Y1Op4crRbXGLQl-56" style="edgeStyle=none;rounded=0;orthogonalLoop=1;jettySize=auto;html=1;exitX=0;exitY=0.5;exitDx=0;exitDy=0;entryX=1;entryY=0.5;entryDx=0;entryDy=0;endArrow=none;endFill=0;" parent="1" source="m4msL5Y1Op4crRbXGLQl-51" target="m4msL5Y1Op4crRbXGLQl-33" edge="1">
          <mxGeometry relative="1" as="geometry" />
        </mxCell>
        <mxCell id="m4msL5Y1Op4crRbXGLQl-51" value="tanggal" style="ellipse;whiteSpace=wrap;html=1;" parent="1" vertex="1">
          <mxGeometry x="560" y="510" width="100" height="40" as="geometry" />
        </mxCell>
        <mxCell id="sAXC5Ejfo2N0Ft8KgXW0-1" value="" style="rounded=1;whiteSpace=wrap;html=1;" vertex="1" parent="1">
          <mxGeometry x="350" y="290" width="120" height="60" as="geometry" />
        </mxCell>
      </root>
    </mxGraphModel>
  </diagram>
</mxfile>
